<mxfile host="app.diagrams.net" modified="2023-12-26T08:06:29.728Z" agent="Mozilla/5.0 (Windows NT 10.0; Win64; x64) AppleWebKit/537.36 (KHTML, like Gecko) Chrome/120.0.0.0 Safari/537.36" etag="kYg9zBZ9q6X73mUOv_IJ" version="22.1.11" type="github">
  <diagram name="第 1 页" id="Gh3WZhMPflj5RQxHIrjv">
    <mxGraphModel dx="2074" dy="1106" grid="1" gridSize="10" guides="1" tooltips="1" connect="1" arrows="1" fold="1" page="1" pageScale="1" pageWidth="827" pageHeight="1169" math="0" shadow="0">
      <root>
        <mxCell id="0" />
        <mxCell id="1" parent="0" />
        <mxCell id="kx-49rOuVMwZbKGNlYPi-1" value="&lt;font style=&quot;font-size: 22px;&quot;&gt;&lt;b&gt;SBC&lt;/b&gt;&lt;/font&gt;" style="rounded=0;whiteSpace=wrap;html=1;" vertex="1" parent="1">
          <mxGeometry x="58" y="310" width="80" height="50" as="geometry" />
        </mxCell>
        <mxCell id="kx-49rOuVMwZbKGNlYPi-2" value="&lt;font style=&quot;font-size: 22px;&quot;&gt;&lt;b&gt;MCU&lt;/b&gt;&lt;/font&gt;" style="rounded=0;whiteSpace=wrap;html=1;" vertex="1" parent="1">
          <mxGeometry x="260" y="310" width="70" height="50" as="geometry" />
        </mxCell>
        <mxCell id="kx-49rOuVMwZbKGNlYPi-3" value="&lt;font style=&quot;font-size: 22px;&quot;&gt;&lt;b&gt;Pump1&lt;/b&gt;&lt;/font&gt;" style="rounded=0;whiteSpace=wrap;html=1;" vertex="1" parent="1">
          <mxGeometry x="470" y="248" width="80" height="48" as="geometry" />
        </mxCell>
        <mxCell id="kx-49rOuVMwZbKGNlYPi-4" value="" style="shape=flexArrow;endArrow=classic;startArrow=classic;html=1;rounded=0;exitX=1;exitY=0.5;exitDx=0;exitDy=0;entryX=0;entryY=0.5;entryDx=0;entryDy=0;" edge="1" parent="1" source="kx-49rOuVMwZbKGNlYPi-1" target="kx-49rOuVMwZbKGNlYPi-2">
          <mxGeometry width="100" height="100" relative="1" as="geometry">
            <mxPoint x="160" y="400" as="sourcePoint" />
            <mxPoint x="260" y="400" as="targetPoint" />
            <Array as="points" />
          </mxGeometry>
        </mxCell>
        <mxCell id="kx-49rOuVMwZbKGNlYPi-6" value="&lt;b&gt;&lt;font color=&quot;#ff6666&quot; style=&quot;font-size: 14px;&quot;&gt;CANFD&lt;/font&gt;&lt;/b&gt;" style="text;html=1;align=center;verticalAlign=middle;resizable=0;points=[];autosize=1;" vertex="1" parent="1">
          <mxGeometry x="168" y="335" width="70" height="30" as="geometry" />
        </mxCell>
        <mxCell id="kx-49rOuVMwZbKGNlYPi-9" value="" style="shape=link;html=1;rounded=0;exitX=1;exitY=0.5;exitDx=0;exitDy=0;" edge="1" parent="1" source="kx-49rOuVMwZbKGNlYPi-2">
          <mxGeometry width="100" relative="1" as="geometry">
            <mxPoint x="360" y="460" as="sourcePoint" />
            <mxPoint x="430" y="335" as="targetPoint" />
          </mxGeometry>
        </mxCell>
        <mxCell id="kx-49rOuVMwZbKGNlYPi-10" value="" style="shape=link;html=1;rounded=0;" edge="1" parent="1">
          <mxGeometry width="100" relative="1" as="geometry">
            <mxPoint x="430" y="392" as="sourcePoint" />
            <mxPoint x="430" y="272" as="targetPoint" />
          </mxGeometry>
        </mxCell>
        <mxCell id="kx-49rOuVMwZbKGNlYPi-11" value="" style="shape=link;html=1;rounded=0;entryX=0;entryY=0.5;entryDx=0;entryDy=0;" edge="1" parent="1">
          <mxGeometry width="100" relative="1" as="geometry">
            <mxPoint x="430" y="392" as="sourcePoint" />
            <mxPoint x="470" y="392" as="targetPoint" />
          </mxGeometry>
        </mxCell>
        <mxCell id="kx-49rOuVMwZbKGNlYPi-12" value="" style="shape=link;html=1;rounded=0;entryX=0;entryY=0.5;entryDx=0;entryDy=0;" edge="1" parent="1" target="kx-49rOuVMwZbKGNlYPi-3">
          <mxGeometry width="100" relative="1" as="geometry">
            <mxPoint x="430" y="272" as="sourcePoint" />
            <mxPoint x="420" y="462" as="targetPoint" />
          </mxGeometry>
        </mxCell>
        <mxCell id="kx-49rOuVMwZbKGNlYPi-13" value="&lt;b&gt;&lt;font color=&quot;#ff6666&quot; style=&quot;font-size: 15px;&quot;&gt;RS485&lt;/font&gt;&lt;/b&gt;" style="text;html=1;align=center;verticalAlign=middle;resizable=0;points=[];autosize=1;strokeColor=none;fillColor=none;" vertex="1" parent="1">
          <mxGeometry x="344" y="332" width="70" height="30" as="geometry" />
        </mxCell>
        <mxCell id="kx-49rOuVMwZbKGNlYPi-14" value="&lt;font style=&quot;font-size: 22px;&quot;&gt;&lt;b&gt;Pump2&lt;br&gt;&lt;/b&gt;&lt;/font&gt;" style="rounded=0;whiteSpace=wrap;html=1;" vertex="1" parent="1">
          <mxGeometry x="470" y="370" width="80" height="48" as="geometry" />
        </mxCell>
      </root>
    </mxGraphModel>
  </diagram>
</mxfile>
